<svg width="158" height="89" viewBox="0 0 158 89" fill="none" xmlns="http://www.w3.org/2000/svg">
<rect width="154" height="81" transform="translate(0.182617 7.66162) rotate(-2.69237)" fill="#D7F25D"/>
<path d="M25.2268 45.1526C24.2386 45.1991 23.3899 45.0334 22.6807 44.6556C21.9715 44.2779 21.4127 43.7202 21.0042 42.9825C20.6051 42.2445 20.381 41.3533 20.3319 40.3092C20.2828 39.265 20.4225 38.3614 20.7511 37.5985C21.0885 36.8258 21.5925 36.2181 22.2631 35.7754C22.9337 35.3328 23.7631 35.0882 24.7514 35.0418C25.4506 35.0089 26.0803 35.0867 26.6404 35.2753C27.2006 35.4638 27.6954 35.7536 28.1249 36.1445L27.7348 37.0879C27.2689 36.7174 26.8126 36.4538 26.3661 36.2973C25.9192 36.1314 25.402 36.0623 24.8147 36.0899C23.6866 36.143 22.8453 36.5329 22.2908 37.2598C21.7364 37.9866 21.489 38.984 21.5486 40.252C21.6082 41.5199 21.9484 42.4943 22.569 43.1752C23.1893 43.8469 24.0634 44.1561 25.1915 44.1031C25.7789 44.0755 26.2875 43.9628 26.7173 43.765C27.1467 43.558 27.5758 43.2435 28.0044 42.8215L28.482 43.7381C28.0906 44.1583 27.6252 44.4932 27.0856 44.7428C26.5457 44.9831 25.9261 45.1197 25.2268 45.1526ZM30.3755 44.7843L30.0454 37.7641L33.4297 37.6049C34.2408 37.5668 34.8542 37.6968 35.27 37.9949C35.6947 38.2833 35.9213 38.7305 35.9498 39.3365C35.9708 39.784 35.8301 40.169 35.5276 40.4916C35.2339 40.8044 34.8414 41.0004 34.3499 41.0795L34.342 40.9117C34.9209 40.9032 35.3903 41.0493 35.7502 41.3501C36.11 41.6508 36.3018 42.0529 36.3255 42.5564C36.3539 43.1624 36.1526 43.6484 35.7213 44.0144C35.2993 44.3799 34.6828 44.5818 33.8717 44.6199L30.3755 44.7843ZM31.4162 43.9645L33.7796 43.8534C34.2737 43.8302 34.6464 43.7099 34.8978 43.4925C35.1581 43.2653 35.2791 42.956 35.2607 42.5644C35.2422 42.1728 35.093 41.8809 34.813 41.6885C34.5423 41.4956 34.1599 41.4108 33.6658 41.4341L31.3024 41.5452L31.4162 43.9645ZM31.2662 40.7761L33.5038 40.6708C33.9606 40.6494 34.31 40.5301 34.5521 40.3132C34.7942 40.0963 34.9067 39.806 34.8896 39.4424C34.8725 39.0788 34.7335 38.805 34.4725 38.6211C34.2112 38.4278 33.8521 38.3419 33.3953 38.3634L31.1577 38.4686L31.2662 40.7761ZM37.6142 44.4439L38.6422 42.4614C38.8049 42.1455 39.017 41.8879 39.2786 41.6887C39.5398 41.4802 39.8195 41.3689 40.1178 41.3549L40.3136 41.3457L40.3056 41.4722C39.5131 41.5095 38.8895 41.3613 38.4346 41.0276C37.9793 40.6846 37.7357 40.1728 37.7037 39.4923C37.673 38.8396 37.8635 38.3215 38.2753 37.9377C38.6866 37.5446 39.3165 37.3281 40.1649 37.2882L43.2834 37.1416L43.6135 44.1618L42.5507 44.2118L42.4231 41.4988L41.3743 41.5481C40.9827 41.5665 40.6564 41.68 40.3952 41.8885C40.134 42.097 39.9173 42.3548 39.7448 42.6619L38.8728 44.3847L37.6142 44.4439ZM40.5257 40.7891L42.3857 40.7017L42.2574 37.9747L40.3975 38.0621C39.8288 38.0889 39.4103 38.23 39.142 38.4856C38.883 38.7407 38.7634 39.078 38.7831 39.4976C38.8037 39.9357 38.9549 40.2697 39.2367 40.4994C39.5273 40.7193 39.957 40.8159 40.5257 40.7891ZM48.176 44.0734C47.5794 44.1014 47.0116 44.0487 46.4727 43.9152C45.9427 43.772 45.5031 43.5637 45.1539 43.2905L45.508 42.4749C45.8661 42.7384 46.2631 42.9347 46.699 43.0637C47.1437 43.1829 47.6225 43.2305 48.1353 43.2063C48.8252 43.1739 49.3189 43.0432 49.6165 42.8143C49.914 42.5854 50.0536 42.2752 50.0352 41.8836C50.0172 41.5014 49.8731 41.2185 49.6029 41.035C49.3322 40.8422 48.9451 40.7576 48.4417 40.7813L46.7915 40.8589L46.752 40.0198L48.2624 39.9488C48.7099 39.9277 49.0549 39.8134 49.2974 39.6058C49.5488 39.3884 49.6662 39.1026 49.6495 38.7483C49.6324 38.3847 49.4792 38.1069 49.1899 37.915C48.9001 37.7137 48.4569 37.6271 47.8602 37.6551C47.3847 37.6775 46.9449 37.7636 46.5409 37.9134C46.1457 38.0534 45.7726 38.2672 45.4218 38.5547L45.008 37.8033C45.3762 37.487 45.8088 37.2471 46.3056 37.0835C46.8025 36.92 47.3446 36.8244 47.932 36.7968C48.8083 36.7556 49.483 36.8967 49.9561 37.2202C50.4287 37.5344 50.6797 38.0037 50.7091 38.6284C50.7297 39.0666 50.5982 39.4512 50.3148 39.7822C50.0309 40.1039 49.6433 40.3043 49.1518 40.3835L49.1439 40.2157C49.7041 40.208 50.1642 40.3546 50.5241 40.6553C50.8839 40.9561 51.0759 41.3628 51.1 41.8756C51.1294 42.5003 50.8965 43.0111 50.4012 43.4081C49.9153 43.8047 49.1736 44.0265 48.176 44.0734ZM55.6831 43.7204C55.0585 43.7497 54.5063 43.6309 54.0265 43.3638C53.5463 43.0874 53.163 42.6849 52.8765 42.1565C52.5994 41.6276 52.4431 40.9855 52.4076 40.2304C52.3716 39.4659 52.4668 38.8074 52.6931 38.2548C52.9287 37.7018 53.2728 37.2698 53.7253 36.9589C54.1779 36.6479 54.7165 36.4778 55.3411 36.4484C55.9751 36.4186 56.5282 36.5561 57.0003 36.8609C57.4814 37.156 57.8095 37.575 57.9845 38.1181L57.8167 38.126L57.8922 36.4546L58.983 36.4033C58.9678 36.675 58.9527 36.9513 58.9379 37.2323C58.932 37.5036 58.9352 37.7697 58.9474 38.0307L59.2013 43.4288L58.0685 43.482L57.9909 41.8319L58.1448 41.8246C58.0215 42.3817 57.7342 42.8297 57.283 43.1686C56.8317 43.5075 56.2984 43.6914 55.6831 43.7204ZM55.8635 42.7869C56.5347 42.7553 57.0554 42.5019 57.4255 42.0266C57.7951 41.5421 57.9591 40.857 57.9175 39.9713C57.8754 39.0763 57.6478 38.4095 57.2348 37.9711C56.8213 37.5234 56.2789 37.3153 55.6076 37.3469C54.9457 37.378 54.4252 37.6361 54.0463 38.1211C53.6762 38.5963 53.5122 39.2814 53.5543 40.1765C53.5959 41.0621 53.8235 41.7289 54.237 42.1766C54.6594 42.6146 55.2015 42.818 55.8635 42.7869ZM62.982 43.251L62.6947 37.1397L60.1495 37.2594L60.1067 36.3504L66.3438 36.0571L66.3866 36.9661L63.8274 37.0865L64.1148 43.1977L62.982 43.251ZM67.8497 43.0221L67.5196 36.0018L68.6524 35.9486L68.7707 38.4658L70.8824 38.3665C71.7867 38.324 72.4765 38.4877 72.9518 38.8578C73.4359 39.2181 73.6946 39.7526 73.7279 40.4611C73.7503 40.9366 73.6624 41.3519 73.4642 41.7069C73.2748 42.0522 72.9795 42.3277 72.578 42.5334C72.1855 42.7294 71.6908 42.8415 71.0942 42.8695L67.8497 43.0221ZM68.9444 42.1577L70.9581 42.063C71.5268 42.0363 71.9549 41.8993 72.2423 41.6522C72.5292 41.3958 72.661 41.0205 72.6378 40.5264C72.6146 40.0323 72.4485 39.6804 72.1397 39.4707C71.8397 39.2512 71.4007 39.155 70.8227 39.1822L68.8089 39.2769L68.9444 42.1577ZM78.5375 42.6456C77.8476 42.6781 77.2392 42.5572 76.7124 42.283C76.1949 42.0083 75.7834 41.6025 75.4779 41.0656C75.1816 40.5283 75.0158 39.882 74.9802 39.1268C74.9443 38.3624 75.0537 37.7078 75.3084 37.1633C75.5626 36.6094 75.9349 36.1807 76.4252 35.8774C76.9248 35.5736 77.5149 35.4057 78.1955 35.3737C78.643 35.3526 79.0802 35.4115 79.5072 35.5502C79.9435 35.6886 80.3083 35.8957 80.6016 36.1715L80.2342 37.0017C79.9418 36.7445 79.6247 36.5585 79.283 36.4438C78.9505 36.3286 78.6258 36.2784 78.3088 36.2934C77.5816 36.3276 77.0283 36.5825 76.6489 37.0582C76.2695 37.5339 76.1004 38.2099 76.1416 39.0862C76.1824 39.9533 76.4144 40.6151 76.8376 41.0717C77.2609 41.5284 77.8361 41.7396 78.5633 41.7054C78.871 41.6909 79.1851 41.6154 79.5057 41.4789C79.8356 41.3419 80.1385 41.1267 80.4144 40.8335L80.8574 41.6115C80.5825 41.9234 80.2343 42.1687 79.8129 42.3474C79.3914 42.526 78.9663 42.6255 78.5375 42.6456ZM82.026 42.3554L83.054 40.373C83.2167 40.057 83.4289 39.7994 83.6905 39.6002C83.9516 39.3917 84.2314 39.2805 84.5297 39.2664L84.7255 39.2572L84.7174 39.3837C83.925 39.421 83.3013 39.2728 82.8465 38.9391C82.3912 38.5961 82.1475 38.0843 82.1155 37.4038C82.0848 36.7512 82.2754 36.233 82.6871 35.8492C83.0985 35.4561 83.7283 35.2396 84.5767 35.1997L87.6953 35.0531L88.0254 42.0733L86.9626 42.1233L86.835 39.4103L85.7862 39.4596C85.3946 39.478 85.0682 39.5915 84.8071 39.8C84.5459 40.0085 84.3291 40.2663 84.1567 40.5734L83.2846 42.2963L82.026 42.3554ZM84.9376 38.7006L86.7975 38.6132L86.6693 35.8862L84.8093 35.9737C84.2406 36.0004 83.8221 36.1415 83.5538 36.3971C83.2949 36.6522 83.1752 36.9895 83.195 37.4091C83.2156 37.8473 83.3668 38.1812 83.6485 38.4109C83.9392 38.6308 84.3689 38.7274 84.9376 38.7006ZM96.9195 41.7812C96.2296 41.8136 95.6212 41.6928 95.0944 41.4185C94.577 41.1439 94.1654 40.7381 93.8599 40.2012C93.5637 39.6638 93.3978 39.0176 93.3623 38.2624C93.3263 37.4979 93.4357 36.8434 93.6904 36.2988C93.9447 35.7449 94.3169 35.3163 94.8072 35.013C95.3068 34.7092 95.8969 34.5412 96.5775 34.5092C97.025 34.4882 97.4623 34.5471 97.8893 34.6858C98.3256 34.8241 98.6904 35.0312 98.9837 35.3071L98.6162 36.1373C98.3238 35.8801 98.0068 35.6941 97.665 35.5793C97.3325 35.4642 97.0078 35.414 96.6908 35.4289C95.9636 35.4631 95.4103 35.7181 95.0309 36.1937C94.6515 36.6694 94.4824 37.3455 94.5236 38.2218C94.5644 39.0889 94.7964 39.7507 95.2197 40.2073C95.6429 40.6639 96.2182 40.8751 96.9453 40.841C97.253 40.8265 97.5671 40.751 97.8877 40.6144C98.2177 40.4775 98.5206 40.2623 98.7964 39.969L99.2395 40.7471C98.9645 41.059 98.6163 41.3043 98.1949 41.483C97.7735 41.6616 97.3483 41.761 96.9195 41.7812ZM104.614 41.2932L104.284 34.273L105.416 34.2197L105.555 37.1565L109.414 36.975L109.276 34.0382L110.409 33.985L110.739 41.0052L109.606 41.0585L109.457 37.884L105.597 38.0655L105.747 41.24L104.614 41.2932ZM115.705 40.8978C115.08 40.9272 114.528 40.8083 114.048 40.5412C113.568 40.2648 113.185 39.8624 112.898 39.3339C112.621 38.805 112.465 38.163 112.429 37.4078C112.393 36.6433 112.488 35.9848 112.715 35.4322C112.95 34.8792 113.294 34.4473 113.747 34.1363C114.199 33.8254 114.738 33.6552 115.363 33.6259C115.997 33.596 116.55 33.7336 117.022 34.0384C117.503 34.3334 117.831 34.7525 118.006 35.2955L117.838 35.3034L117.914 33.632L119.005 33.5807C118.989 33.8524 118.974 34.1288 118.959 34.4098C118.954 34.681 118.957 34.9472 118.969 35.2082L119.223 40.6062L118.09 40.6595L118.013 39.0093L118.166 39.0021C118.043 39.5592 117.756 40.0072 117.305 40.3461C116.853 40.685 116.32 40.8689 115.705 40.8978ZM115.885 39.9643C116.556 39.9328 117.077 39.6794 117.447 39.2041C117.817 38.7195 117.981 38.0344 117.939 37.1487C117.897 36.2537 117.669 35.587 117.256 35.1486C116.843 34.7009 116.3 34.4928 115.629 34.5243C114.967 34.5555 114.447 34.8135 114.068 35.2985C113.698 35.7738 113.534 36.4589 113.576 37.3539C113.617 38.2396 113.845 38.9063 114.259 39.354C114.681 39.792 115.223 39.9955 115.885 39.9643ZM121.507 40.4988L121.177 33.4786L122.128 33.4339L124.979 38.023L127.4 33.1859L128.351 33.1412L128.681 40.1615L127.674 40.2088L127.403 34.4472L127.697 34.4334L125.328 39.1839L124.754 39.2109L121.935 34.6903L122.243 34.6758L122.514 40.4515L121.507 40.4988ZM130.917 40.0563L130.587 33.0361L131.621 32.9874L131.902 38.9588L131.525 38.9766L135.719 32.7947L136.67 32.75L137 39.7703L135.979 39.8183L135.698 33.8329L136.075 33.8151L131.882 40.011L130.917 40.0563Z" fill="black"/>
</svg>
