<svg width="18" height="15" viewBox="0 0 18 15" fill="none" xmlns="http://www.w3.org/2000/svg">
<path fill-rule="evenodd" clip-rule="evenodd" d="M1.20469 6.25197C5.90877 4.20248 9.04556 2.85133 10.6151 2.19852C15.0963 0.334616 16.0275 0.0108359 16.6344 0.000144512C16.7679 -0.00220694 17.0663 0.0308749 17.2597 0.187751C17.4229 0.320215 17.4678 0.499154 17.4893 0.624744C17.5108 0.750334 17.5376 1.03643 17.5163 1.25998C17.2735 3.81152 16.2227 10.0034 15.6881 12.8612C15.4619 14.0704 15.0165 14.4759 14.5854 14.5156C13.6483 14.6018 12.9367 13.8963 12.0291 13.3013C10.6089 12.3704 9.80658 11.7908 8.42803 10.8824C6.83486 9.83252 7.86764 9.25549 8.77558 8.31247C9.01319 8.06568 13.1419 4.31026 13.2219 3.96959C13.2318 3.92698 13.2411 3.76816 13.1468 3.6843C13.0524 3.60044 12.9132 3.62911 12.8127 3.65192C12.6702 3.68425 10.4014 5.18385 6.00626 8.15071C5.36227 8.59292 4.77896 8.80838 4.25634 8.79709C3.68019 8.78464 2.5719 8.47133 1.74801 8.20351C0.737466 7.87502 -0.0656917 7.70135 0.00424538 7.14348C0.0406729 6.8529 0.440821 6.55573 1.20469 6.25197Z" fill="#121212"/>
</svg>
